<svg xmlns="http://www.w3.org/2000/svg" viewBox="0 0 1024 1024" role="img" aria-labelledby="title desc">
  <title id="title">MaiAtesta split persona</title>
  <desc id="desc">Black and white portrait of a split human and robot persona inside a circular frame.</desc>
  <defs>
    <radialGradient id="paper" cx="50%" cy="40%" r="64%">
      <stop offset="0%" stop-color="#ffffff"/>
      <stop offset="72%" stop-color="#f4f4f4"/>
      <stop offset="100%" stop-color="#e5e5e5"/>
    </radialGradient>
    <pattern id="halftone" width="12" height="12" patternUnits="userSpaceOnUse">
      <circle cx="3" cy="3" r="1.3" fill="#111111" opacity="0.42"/>
      <circle cx="9" cy="9" r="1.1" fill="#111111" opacity="0.32"/>
    </pattern>
    <clipPath id="circleClip">
      <circle cx="512" cy="512" r="490"/>
    </clipPath>
    <filter id="softShadow" x="-20%" y="-20%" width="140%" height="140%">
      <feDropShadow dx="0" dy="12" stdDeviation="18" flood-color="#000000" flood-opacity="0.18"/>
    </filter>
  </defs>

  <g filter="url(#softShadow)">
    <circle cx="512" cy="512" r="500" fill="#0f0f0f"/>
    <circle cx="512" cy="512" r="490" fill="url(#paper)"/>
    <circle cx="512" cy="512" r="486" fill="none" stroke="#171717" stroke-width="4"/>
  </g>

  <g clip-path="url(#circleClip)">
    <path d="M298 950c20-128 76-224 168-286h93c104 67 160 162 174 286z" fill="#f8f8f8" stroke="#111" stroke-width="7"/>
    <path d="M406 668c-20 68-34 150-40 282h-92c18-118 70-214 132-282z" fill="#121212" opacity="0.95"/>
    <path d="M620 668c64 68 114 164 132 282h-94c-4-120-18-214-38-282z" fill="#181818" opacity="0.95"/>

    <path d="M421 640l92 128-88 182-156-2c14-100 46-194 152-308z" fill="#ffffff" stroke="#111" stroke-width="6"/>
    <path d="M603 640l-90 128 84 182 160-2c-16-106-50-197-154-308z" fill="#f3f3f3" stroke="#111" stroke-width="6"/>

    <path d="M434 696h156l-24 220H458z" fill="#111"/>
    <path d="M502 696h20v220h-20z" fill="#2a2a2a"/>

    <path d="M338 302c0-118 80-206 174-206 94 0 174 88 174 206v170c0 108-80 190-174 190-94 0-174-82-174-190z" fill="#fbfbfb" stroke="#101010" stroke-width="7"/>
    <path d="M512 96c94 0 174 88 174 206v170c0 108-80 190-174 190z" fill="#f0f0f0"/>
    <rect x="344" y="160" width="168" height="430" fill="url(#halftone)" opacity="0.78"/>

    <path d="M324 314c-42-152 30-232 138-246 72-10 130 18 168 74l-24 70c-36-52-78-74-136-66-62 8-104 48-118 120-8 42-42 36-28-18z" fill="#111"/>
    <path d="M332 300c10-116 86-190 182-194v52c-74 8-126 56-142 150z" fill="#1a1a1a" opacity="0.32"/>

    <path d="M404 458c-42 0-72-28-72-68 0-12 18-12 18 0 0 28 22 50 54 50 30 0 48-20 48-40 0-12 18-12 18 0 0 34-28 58-66 58z" fill="#111"/>
    <path d="M552 404c18-16 44-26 74-22 42 6 72 42 72 82 0 12-18 12-18 0 0-30-24-56-56-60-22-2-40 4-54 16z" fill="#111" opacity="0.9"/>

    <path d="M374 406c18-18 44-28 76-28 34 0 62 12 82 34-22-10-48-14-80-10-32 4-58 8-78 4z" fill="#111"/>
    <path d="M514 370c24 20 42 48 48 92v158c78-24 124-88 124-166V302c0-118-80-206-174-206z" fill="#ededed" opacity="0.84"/>

    <ellipse cx="430" cy="456" rx="38" ry="24" fill="#fff" stroke="#111" stroke-width="5"/>
    <ellipse cx="436" cy="458" rx="14" ry="14" fill="#111"/>
    <path d="M392 458c12-22 28-34 48-34 20 0 36 12 48 34" fill="none" stroke="#111" stroke-width="4" stroke-linecap="round"/>

    <path d="M524 434c18-22 44-34 76-34 34 0 64 14 82 42" fill="none" stroke="#111" stroke-width="5" stroke-linecap="round"/>
    <path d="M546 458c12-14 28-22 50-22 22 0 40 10 54 28" fill="none" stroke="#111" stroke-width="4" stroke-linecap="round"/>
    <circle cx="590" cy="470" r="16" fill="#111"/>
    <circle cx="590" cy="470" r="8" fill="#fff" opacity="0.85"/>

    <path d="M458 510c22 20 48 22 78 0" fill="none" stroke="#111" stroke-width="5" stroke-linecap="round"/>
    <path d="M448 558c24 16 42 22 64 22" fill="none" stroke="#111" stroke-width="6" stroke-linecap="round"/>
    <path d="M512 372v280" stroke="#111" stroke-width="6"/>

    <path d="M364 538c18 76 74 126 148 126V604c-30 4-56 0-76-10-22-12-40-30-52-56z" fill="#111" opacity="0.95"/>
    <path d="M354 548c28 16 62 22 102 16 8 38 22 72 40 100-78-16-126-56-142-116z" fill="#161616" opacity="0.88"/>

    <path d="M546 214h108c22 6 34 18 36 34l-14 56c-18-34-52-52-102-56z" fill="#f6f6f6" stroke="#111" stroke-width="6"/>
    <path d="M604 208c78 6 126 46 142 118l-16 22c-14-76-50-116-118-122z" fill="#ececec" stroke="#111" stroke-width="6"/>
    <path d="M602 242h78c16 0 26 8 28 22l-6 182c-6 72-36 128-92 166l-30 8-16-24 20-14c42-30 68-78 74-142l6-170h-58z" fill="#fafafa" stroke="#111" stroke-width="6"/>
    <path d="M628 286h30" stroke="#111" stroke-width="5" stroke-linecap="round"/>
    <path d="M628 330h32" stroke="#111" stroke-width="5" stroke-linecap="round"/>
    <path d="M626 374h34" stroke="#111" stroke-width="5" stroke-linecap="round"/>
    <path d="M624 418h32" stroke="#111" stroke-width="5" stroke-linecap="round"/>
    <path d="M620 472h28" stroke="#111" stroke-width="5" stroke-linecap="round"/>

    <g transform="translate(698 348) rotate(-18)">
      <rect x="0" y="12" width="46" height="156" rx="22" fill="#f5f5f5" stroke="#111" stroke-width="6"/>
      <rect x="36" y="48" width="46" height="142" rx="20" fill="#fdfdfd" stroke="#111" stroke-width="6"/>
      <rect x="64" y="76" width="42" height="124" rx="18" fill="#f5f5f5" stroke="#111" stroke-width="6"/>
      <rect x="82" y="102" width="40" height="108" rx="18" fill="#ffffff" stroke="#111" stroke-width="6"/>
      <path d="M-18 88h42c18 0 28 10 28 28v66h-58c-22 0-32-12-32-32v-34c0-18 8-28 20-28z" fill="#f6f6f6" stroke="#111" stroke-width="6"/>
      <path d="M-30 152l36 18" stroke="#111" stroke-width="6" stroke-linecap="round"/>
      <path d="M16 28l24 20" stroke="#111" stroke-width="6" stroke-linecap="round"/>
      <path d="M48 56l24 20" stroke="#111" stroke-width="6" stroke-linecap="round"/>
      <path d="M76 88l20 18" stroke="#111" stroke-width="6" stroke-linecap="round"/>
      <rect x="-78" y="118" width="86" height="28" rx="14" fill="#fafafa" stroke="#111" stroke-width="6"/>
      <circle cx="-70" cy="132" r="10" fill="#111"/>
    </g>
  </g>
</svg>